<?xml version="1.0" encoding="UTF-8"?>
<svg fill="currentColor" viewBox="0 0 1915.1 609.27" xmlns="http://www.w3.org/2000/svg">
<path d="M1830.4 186.955h43.565a41.306 41.306 0 0141.145 41.134v25.421h-84.71v-66.555z" fill="#00c0a5"/>
<path fill="#ffffff" d="m693.64 186.96h43.558a40.708 40.708 0 0 1 29.047 11.5 37.7 37.7 0 0 1 12.1 28.429v376.34h-84.7v-416.27zm208.86 222.65h123.43q-2.442-32.675-16.943-48.4-15.74-16.935-44.772-16.938-26.628 0-43.565 16.938-16.959 16.959-18.15 48.4zm145.21 94.383h60.5q-13.321 50.838-50.824 77.445-37.521 27.849-94.389 27.835-68.978 0-107.69-44.778-38.746-43.553-38.726-124.64 0-77.415 37.513-121 38.719-44.757 107.7-44.777 72.606 0 112.54 43.57 38.71 44.784 38.72 124.64v13.311c0 4.048-0.416 6.861-1.207 8.472h-209.34q1.2 37.516 18.15 55.663 15.714 19.377 47.192 19.363 20.573 0 35.1-8.472a16.9 16.9 0 0 0 6.653-4.233c2-2 4.233-4.238 6.652-6.658q1.2-3.63 9.078-9.678 7.857-6.047 22.389-6.058zm390.38 99.234h-42.358q-18.147 0-29.647-11.5t-11.5-29.648v-164.58q0-29.036-17.544-42.352a63.522 63.522 0 0 0-39.326-13.311 61.025 61.025 0 0 0-38.726 13.311q-16.959 13.33-16.937 42.352v205.72h-84.703v-188.78q0-82.274 42.959-110.12 42.93-27.823 94.989-30.254a182.22 182.22 0 0 1 98.016 27.834q44.757 27.856 44.777 112.54v188.78zm119.32-163.37q0 48.422 18.15 73.819 18.156 25.415 52.037 25.415 32.665 0 50.824-25.415 16.926-25.405 16.937-73.819 0-43.554-18.15-68.974-19.368-24.185-52.031-24.2-31.486 0-49.617 25.42-18.147 24.217-18.15 67.754zm137.95-254.12h41.146q16.934 0 29.041 12.716 12.084 12.69 12.1 28.429v235.97q0 85.938-49.617 116.17a203.09 203.09 0 0 1-107.69 30.248 190.72 190.72 0 0 1-61.715-10.291q-30.265-10.265-48.4-33.268-35.116-44.749-35.094-122.22 0-76.234 35.094-122.21 36.3-47.2 93.176-47.2 30.231 0 53.243 12.1a115.06 115.06 0 0 1 38.72 37.513v-137.95zm135.05 95.601h43.565a41.317 41.317 0 0 1 41.145 41.146v280.74h-84.71v-321.89z"/>
<path d="M513.617 502.385H363.694V346.877H256.8v155.508H106.886v-250.65l207.028-134.282 199.7 133.772v251.16zm83.189-324.092L344.129 9.041a53.445 53.445 0 00-58.829-.433L24.359 177.86A53.443 53.443 0 000 222.7v333.125a53.443 53.443 0 0053.44 53.446h513.622a53.444 53.444 0 0053.446-53.446V222.7a53.437 53.437 0 00-23.7-44.407z" fill="#00c0a5"/>
</svg>
